<svg width="420" height="275" viewBox="0 0 420 275" fill="none" xmlns="http://www.w3.org/2000/svg">
<g filter="url(#filter0_dd_29_28)">
<path d="M262.264 61.6769C259.159 50.6017 252.416 40.913 243.136 34.1917C241.914 32.0343 240.115 30.2652 237.944 29.0859C244.226 20.4729 244.368 18.5404 244.439 17.6814C244.486 16.8399 244.354 15.9981 244.051 15.2121C243.749 14.4262 243.283 13.7145 242.685 13.1244C241.192 11.5736 238.087 9.80808 231.876 10.166C226.045 10.5 220.404 15.3672 217.133 18.7551C214.902 17.0967 212.202 16.2018 209.429 16.2018C206.656 16.2018 203.956 17.0967 201.725 18.7551C198.549 15.2717 192.907 10.3807 187.053 10.0467C180.842 9.68878 177.737 11.4543 176.315 13.1244C175.69 13.7394 175.208 14.4865 174.905 15.3117C174.601 16.137 174.484 17.0197 174.561 17.8962C174.561 18.7312 174.774 20.6876 181.127 29.2529C178.894 30.4406 177.068 32.2781 175.888 34.5257C175.748 34.5748 175.612 34.6388 175.485 34.7166C166.449 41.3728 159.856 50.8527 156.736 61.6769C150.43 62.512 145.5 68.7152 145.5 76.2546C145.5 84.1995 150.999 90.5698 157.802 90.9277C165.056 111.279 185.488 126 209.5 126C233.512 126 253.944 111.279 261.198 90.9277C268.001 90.6891 273.5 84.1995 273.5 76.2546C273.5 68.7391 268.57 62.512 262.264 61.6769ZM232.208 14.8184C237.186 14.5321 238.94 15.9159 239.319 16.3454C239.45 16.4573 239.556 16.596 239.63 16.7524C239.703 16.9087 239.743 17.079 239.746 17.252C238.249 20.5899 236.302 23.7048 233.962 26.5092C233.601 27.0182 233.348 27.5963 233.218 28.2077C233.087 28.819 233.082 29.4508 233.204 30.0641C233.325 30.668 233.569 31.2402 233.919 31.7451C234.27 32.25 234.72 32.6767 235.242 32.9987C238.063 34.7404 239.082 36.2435 238.916 36.7923C237.817 38.8435 236.052 40.4523 233.915 41.3493C232.059 42.4313 229.858 42.7477 227.776 42.2321C224.975 40.7351 222.544 38.6231 220.664 36.0527C220.994 35.5248 221.287 34.9747 221.541 34.4064C222.371 34.7404 223.414 35.1699 224.67 35.7425C224.983 35.8858 225.323 35.9591 225.666 35.9572C226.199 35.9488 226.714 35.7596 227.128 35.4202C227.541 35.0807 227.828 34.6109 227.943 34.0866C228.058 33.5624 227.995 33.0144 227.762 32.5312C227.529 32.048 227.142 31.658 226.661 31.4241C224.979 30.6367 223.604 30.088 222.584 29.7062C222.584 29.5392 222.584 29.3722 222.584 29.2052C222.621 28.7128 222.621 28.2184 222.584 27.726C224.485 26.9655 226.453 26.3902 228.463 26.0081C228.774 25.9533 229.072 25.8373 229.338 25.6667C229.605 25.4962 229.836 25.2744 230.018 25.0141C230.199 24.7538 230.328 24.46 230.397 24.1496C230.466 23.8391 230.473 23.5181 230.419 23.2047C230.364 22.8914 230.249 22.592 230.079 22.3235C229.91 22.055 229.69 21.8227 229.431 21.64C229.172 21.4572 228.88 21.3275 228.572 21.2582C228.264 21.189 227.945 21.1816 227.633 21.2364C225.388 21.6203 223.188 22.236 221.067 23.0735C220.878 22.7156 220.664 22.3578 220.451 22.0237C224.67 17.7292 229.008 14.9854 232.208 14.8184ZM209.5 20.8547C211.141 20.8547 212.745 21.3444 214.109 22.262C215.473 23.1795 216.537 24.4837 217.165 26.0096C217.793 27.5355 217.957 29.2145 217.637 30.8343C217.317 32.4542 216.527 33.9421 215.366 35.1099C214.206 36.2778 212.728 37.0731 211.119 37.3953C209.509 37.7175 207.841 37.5521 206.325 36.9201C204.809 36.2881 203.513 35.2178 202.602 33.8445C201.69 32.4713 201.204 30.8568 201.204 29.2052C201.204 26.9905 202.078 24.8665 203.634 23.3005C205.189 21.7344 207.3 20.8547 209.5 20.8547ZM183.734 32.9987C184.263 32.6765 184.719 32.2471 185.074 31.7378C185.429 31.2285 185.675 30.6504 185.796 30.0403C185.914 29.4292 185.905 28.8003 185.77 28.1928C185.636 27.5853 185.378 27.0122 185.014 26.5092C182.693 23.7079 180.749 20.6115 179.23 17.2997C179.228 17.119 179.265 16.9399 179.339 16.775C179.413 16.6102 179.521 16.4635 179.657 16.3454C180.084 15.9159 181.838 14.5082 186.768 14.8184C189.968 14.9854 194.306 17.7292 198.62 22.1192C198.407 22.4771 198.193 22.8111 198.004 23.169C195.883 22.3339 193.683 21.7184 191.438 21.3318C191.131 21.2731 190.816 21.276 190.51 21.3403C190.205 21.4045 189.915 21.5289 189.657 21.7062C189.399 21.8836 189.179 22.1104 189.009 22.3737C188.838 22.637 188.721 22.9316 188.664 23.2405C188.553 23.8569 188.687 24.4927 189.037 25.0105C189.388 25.5283 189.926 25.8867 190.537 26.0081C192.604 26.3749 194.629 26.9504 196.581 27.726C196.546 28.2184 196.546 28.7128 196.581 29.2052C196.581 29.3722 196.581 29.5392 196.581 29.7062C195.562 30.088 194.211 30.6367 192.504 31.4241C192.024 31.658 191.637 32.048 191.404 32.5312C191.171 33.0144 191.107 33.5624 191.223 34.0866C191.338 34.6109 191.625 35.0807 192.038 35.4202C192.452 35.7596 192.967 35.9488 193.5 35.9572C193.843 35.9548 194.182 35.8817 194.496 35.7425C195.728 35.1699 196.866 34.7166 197.624 34.4064C197.879 34.9747 198.172 35.5248 198.501 36.0527C196.621 38.6231 194.191 40.7351 191.39 42.2321C189.308 42.7477 187.107 42.4313 185.251 41.3493C183.114 40.4523 181.348 38.8435 180.25 36.7923C179.894 36.2435 180.913 34.7404 183.734 32.9987ZM150.241 76.2546C150.149 74.346 150.606 72.4514 151.556 70.7971C152.506 69.1428 153.909 67.7988 155.598 66.9258C154.582 73.2173 154.824 79.6495 156.309 85.8458C154.424 85.0919 152.824 83.7595 151.734 82.0377C150.645 80.3159 150.122 78.2924 150.241 76.2546ZM209.5 121.228C182.051 121.228 159.722 100.328 159.722 74.6322C159.764 67.9672 161.274 61.3945 164.143 55.3876C167.012 49.3806 171.169 44.089 176.315 39.8939C177.968 42.3904 180.272 44.3799 182.976 45.6439C184.985 46.6686 187.195 47.2309 189.447 47.2901C190.627 47.3099 191.801 47.1076 192.907 46.6936C196.353 45.041 199.359 42.5877 201.678 39.536C203.942 41.285 206.717 42.2331 209.571 42.2331C212.425 42.2331 215.2 41.285 217.464 39.536C219.788 42.5826 222.793 45.0349 226.235 46.6936C227.319 47.0989 228.468 47.301 229.624 47.2901C231.876 47.2309 234.086 46.6686 236.096 45.6439C238.773 44.369 241.052 42.3804 242.685 39.8939C247.835 44.0856 251.994 49.3766 254.864 55.3843C257.733 61.392 259.241 67.9663 259.278 74.6322C259.278 100.328 236.949 121.228 209.5 121.228ZM262.691 85.8458C264.176 79.6495 264.418 73.2173 263.402 66.9258C265.089 67.8011 266.49 69.1456 267.44 70.7993C268.39 72.4531 268.848 74.3465 268.759 76.2546C268.881 78.293 268.36 80.3182 267.27 82.0407C266.181 83.7632 264.578 85.095 262.691 85.8458Z" fill="#222831"/>
<path d="M188.854 62.512C186.452 62.6657 184.206 63.7662 182.605 65.575C181.003 67.3837 180.174 69.7549 180.297 72.1747C180.297 72.8075 180.547 73.4144 180.991 73.8618C181.436 74.3092 182.039 74.5606 182.667 74.5606C183.296 74.5606 183.899 74.3092 184.344 73.8618C184.788 73.4144 185.038 72.8075 185.038 72.1747C184.916 71.0199 185.247 69.8629 185.96 68.9496C186.672 68.0364 187.711 67.4387 188.854 67.2837C189.998 67.4387 191.036 68.0364 191.748 68.9496C192.461 69.8629 192.792 71.0199 192.67 72.1747C192.67 72.8075 192.92 73.4144 193.365 73.8618C193.809 74.3092 194.412 74.5606 195.041 74.5606C195.669 74.5606 196.272 74.3092 196.717 73.8618C197.161 73.4144 197.411 72.8075 197.411 72.1747C197.534 69.7549 196.705 67.3837 195.104 65.575C193.502 63.7662 191.256 62.6657 188.854 62.512Z" fill="#222831"/>
<path d="M228.084 62.512C225.681 62.6657 223.436 63.7662 221.834 65.575C220.232 67.3837 219.403 69.7549 219.527 72.1747C219.527 72.8075 219.776 73.4144 220.221 73.8618C220.665 74.3092 221.268 74.5606 221.897 74.5606C222.526 74.5606 223.129 74.3092 223.573 73.8618C224.018 73.4144 224.267 72.8075 224.267 72.1747C224.146 71.0199 224.477 69.8629 225.189 68.9496C225.902 68.0364 226.94 67.4387 228.084 67.2837C229.227 67.4387 230.265 68.0364 230.978 68.9496C231.691 69.8629 232.021 71.0199 231.9 72.1747C231.9 72.8075 232.15 73.4144 232.594 73.8618C233.039 74.3092 233.642 74.5606 234.27 74.5606C234.899 74.5606 235.502 74.3092 235.946 73.8618C236.391 73.4144 236.641 72.8075 236.641 72.1747C236.764 69.7549 235.935 67.3837 234.333 65.575C232.731 63.7662 230.486 62.6657 228.084 62.512Z" fill="#222831"/>
<path d="M219.811 89.4724C219.183 89.4724 218.58 89.7238 218.135 90.1712C217.691 90.6187 217.441 91.2255 217.441 91.8583C217.441 93.9781 216.604 96.011 215.115 97.51C213.626 99.0089 211.606 99.8509 209.5 99.8509C207.394 99.8509 205.374 99.0089 203.885 97.51C202.396 96.011 201.559 93.9781 201.559 91.8583C201.559 91.2255 201.31 90.6187 200.865 90.1712C200.421 89.7238 199.818 89.4724 199.189 89.4724C198.56 89.4724 197.957 89.7238 197.513 90.1712C197.068 90.6187 196.819 91.2255 196.819 91.8583C196.819 95.2436 198.155 98.4903 200.533 100.884C202.911 103.278 206.137 104.623 209.5 104.623C212.863 104.623 216.089 103.278 218.467 100.884C220.845 98.4903 222.182 95.2436 222.182 91.8583C222.182 91.2255 221.932 90.6187 221.487 90.1712C221.043 89.7238 220.44 89.4724 219.811 89.4724Z" fill="#222831"/>
</g>
<g filter="url(#filter1_dd_29_28)">
<path d="M28.6973 141.234V191H18.4434V141.234H28.6973ZM58.502 141.234L38.7803 165.81L27.3984 178.046L25.5527 168.339L33.2432 157.812L45.9238 141.234H58.502ZM46.8467 191L32.1836 167.997L39.7715 161.64L58.9805 191H46.8467ZM102.73 164.955V167.313C102.73 171.096 102.218 174.491 101.192 177.499C100.167 180.507 98.7201 183.07 96.8516 185.189C94.9831 187.286 92.75 188.892 90.1523 190.009C87.5775 191.125 84.7178 191.684 81.5732 191.684C78.4515 191.684 75.5918 191.125 72.9941 190.009C70.4193 188.892 68.1862 187.286 66.2949 185.189C64.4036 183.07 62.9339 180.507 61.8857 177.499C60.8604 174.491 60.3477 171.096 60.3477 167.313V164.955C60.3477 161.15 60.8604 157.755 61.8857 154.77C62.9111 151.762 64.3581 149.198 66.2266 147.079C68.1178 144.96 70.3509 143.342 72.9258 142.226C75.5234 141.109 78.3831 140.551 81.5049 140.551C84.6494 140.551 87.5091 141.109 90.084 142.226C92.6816 143.342 94.9147 144.96 96.7832 147.079C98.6745 149.198 100.133 151.762 101.158 154.77C102.206 157.755 102.73 161.15 102.73 164.955ZM92.374 167.313V164.887C92.374 162.243 92.1348 159.919 91.6562 157.914C91.1777 155.909 90.4714 154.223 89.5371 152.855C88.6029 151.488 87.4635 150.463 86.1191 149.779C84.7747 149.073 83.2367 148.72 81.5049 148.72C79.7731 148.72 78.235 149.073 76.8906 149.779C75.569 150.463 74.4411 151.488 73.5068 152.855C72.5954 154.223 71.9004 155.909 71.4219 157.914C70.9434 159.919 70.7041 162.243 70.7041 164.887V167.313C70.7041 169.934 70.9434 172.258 71.4219 174.286C71.9004 176.291 72.6068 177.989 73.541 179.379C74.4753 180.746 75.6146 181.783 76.959 182.489C78.3034 183.196 79.8415 183.549 81.5732 183.549C83.305 183.549 84.8431 183.196 86.1875 182.489C87.5319 181.783 88.6598 180.746 89.5713 179.379C90.4827 177.989 91.1777 176.291 91.6562 174.286C92.1348 172.258 92.374 169.934 92.374 167.313ZM150.616 141.234V191H140.362L120.367 157.641V191H110.113V141.234H120.367L140.396 174.628V141.234H150.616ZM196.451 169.159H183.668L183.6 162.118H194.332C196.223 162.118 197.773 161.879 198.98 161.4C200.188 160.899 201.088 160.181 201.681 159.247C202.296 158.29 202.604 157.128 202.604 155.761C202.604 154.211 202.307 152.958 201.715 152.001C201.145 151.044 200.245 150.349 199.015 149.916C197.807 149.483 196.246 149.267 194.332 149.267H187.223V191H176.969V141.234H194.332C197.226 141.234 199.812 141.508 202.091 142.055C204.392 142.602 206.34 143.433 207.936 144.55C209.531 145.666 210.75 147.079 211.593 148.788C212.436 150.474 212.857 152.479 212.857 154.804C212.857 156.854 212.39 158.746 211.456 160.478C210.545 162.209 209.098 163.622 207.115 164.716C205.156 165.81 202.592 166.413 199.425 166.527L196.451 169.159ZM196.007 191H180.865L184.864 183.002H196.007C197.807 183.002 199.277 182.717 200.416 182.147C201.555 181.555 202.398 180.757 202.945 179.755C203.492 178.752 203.766 177.602 203.766 176.303C203.766 174.844 203.515 173.58 203.014 172.509C202.535 171.438 201.76 170.618 200.689 170.048C199.618 169.455 198.206 169.159 196.451 169.159H186.573L186.642 162.118H198.946L201.305 164.887C204.335 164.841 206.773 165.377 208.619 166.493C210.488 167.587 211.843 169.011 212.687 170.766C213.552 172.52 213.985 174.4 213.985 176.405C213.985 179.595 213.29 182.284 211.9 184.472C210.51 186.636 208.471 188.266 205.782 189.359C203.116 190.453 199.858 191 196.007 191ZM221.676 141.234H240.235C244.041 141.234 247.311 141.804 250.045 142.943C252.802 144.083 254.921 145.769 256.402 148.002C257.883 150.235 258.624 152.981 258.624 156.239C258.624 158.905 258.168 161.195 257.257 163.109C256.368 165.001 255.104 166.584 253.463 167.86C251.845 169.114 249.942 170.116 247.755 170.868L244.508 172.577H228.375L228.307 164.579H240.304C242.104 164.579 243.596 164.26 244.781 163.622C245.966 162.984 246.855 162.095 247.447 160.956C248.062 159.817 248.37 158.495 248.37 156.991C248.37 155.396 248.074 154.018 247.481 152.855C246.889 151.693 245.989 150.805 244.781 150.189C243.574 149.574 242.058 149.267 240.235 149.267H231.93V191H221.676V141.234ZM249.498 191L238.15 168.817L248.985 168.749L260.47 190.521V191H249.498ZM286.754 149.745L273.219 191H262.315L280.807 141.234H287.745L286.754 149.745ZM297.999 191L284.43 149.745L283.336 141.234H290.343L308.937 191H297.999ZM297.384 172.475V180.507H271.1V172.475H297.384ZM354.054 141.234V191H343.8L323.805 157.641V191H313.551V141.234H323.805L343.834 174.628V141.234H354.054ZM378.253 191H367.418L367.486 183.002H378.253C380.942 183.002 383.209 182.398 385.055 181.19C386.9 179.96 388.29 178.171 389.225 175.824C390.182 173.477 390.66 170.64 390.66 167.313V164.887C390.66 162.335 390.387 160.09 389.84 158.153C389.316 156.216 388.53 154.587 387.481 153.266C386.433 151.944 385.146 150.953 383.619 150.292C382.092 149.608 380.338 149.267 378.355 149.267H367.213V141.234H378.355C381.682 141.234 384.724 141.804 387.481 142.943C390.261 144.06 392.665 145.666 394.693 147.763C396.721 149.859 398.282 152.366 399.376 155.282C400.493 158.176 401.051 161.4 401.051 164.955V167.313C401.051 170.845 400.493 174.07 399.376 176.986C398.282 179.903 396.721 182.41 394.693 184.506C392.688 186.579 390.284 188.186 387.481 189.325C384.701 190.442 381.625 191 378.253 191ZM373.229 141.234V191H362.975V141.234H373.229Z" fill="#222831"/>
<path d="M130.818 234.978C130.818 234.089 130.682 233.291 130.408 232.585C130.158 231.856 129.679 231.195 128.973 230.603C128.266 229.987 127.275 229.383 125.999 228.791C124.723 228.199 123.071 227.583 121.043 226.945C118.787 226.216 116.645 225.396 114.617 224.484C112.612 223.573 110.835 222.513 109.285 221.306C107.758 220.075 106.551 218.651 105.662 217.033C104.796 215.415 104.363 213.535 104.363 211.394C104.363 209.32 104.819 207.44 105.73 205.754C106.642 204.045 107.918 202.587 109.559 201.379C111.199 200.148 113.136 199.203 115.369 198.542C117.625 197.881 120.097 197.551 122.786 197.551C126.455 197.551 129.656 198.212 132.391 199.533C135.125 200.855 137.244 202.666 138.748 204.968C140.275 207.269 141.038 209.901 141.038 212.863H130.853C130.853 211.405 130.545 210.129 129.93 209.035C129.337 207.919 128.426 207.041 127.195 206.403C125.988 205.765 124.461 205.446 122.615 205.446C120.838 205.446 119.357 205.72 118.172 206.267C116.987 206.791 116.098 207.508 115.506 208.42C114.913 209.309 114.617 210.311 114.617 211.428C114.617 212.271 114.822 213.034 115.232 213.718C115.665 214.401 116.303 215.039 117.146 215.632C117.99 216.224 119.026 216.783 120.257 217.307C121.487 217.831 122.911 218.343 124.529 218.845C127.241 219.665 129.622 220.588 131.673 221.613C133.746 222.639 135.478 223.789 136.868 225.065C138.258 226.341 139.306 227.788 140.013 229.406C140.719 231.024 141.072 232.858 141.072 234.909C141.072 237.074 140.651 239.011 139.808 240.72C138.965 242.429 137.745 243.876 136.15 245.061C134.555 246.245 132.653 247.146 130.442 247.761C128.232 248.376 125.76 248.684 123.025 248.684C120.564 248.684 118.138 248.365 115.745 247.727C113.353 247.066 111.176 246.075 109.217 244.753C107.28 243.431 105.73 241.745 104.568 239.694C103.406 237.644 102.825 235.217 102.825 232.414H113.113C113.113 233.964 113.353 235.274 113.831 236.345C114.31 237.416 114.982 238.282 115.848 238.942C116.736 239.603 117.785 240.082 118.992 240.378C120.223 240.674 121.567 240.822 123.025 240.822C124.803 240.822 126.261 240.572 127.4 240.07C128.562 239.569 129.417 238.874 129.964 237.985C130.534 237.097 130.818 236.094 130.818 234.978ZM170.296 198.234V248H160.076V198.234H170.296ZM185.608 198.234V206.267H145.003V198.234H185.608ZM231.375 221.955V224.313C231.375 228.096 230.862 231.491 229.837 234.499C228.812 237.507 227.365 240.07 225.496 242.189C223.628 244.286 221.395 245.892 218.797 247.009C216.222 248.125 213.362 248.684 210.218 248.684C207.096 248.684 204.236 248.125 201.639 247.009C199.064 245.892 196.831 244.286 194.939 242.189C193.048 240.07 191.578 237.507 190.53 234.499C189.505 231.491 188.992 228.096 188.992 224.313V221.955C188.992 218.15 189.505 214.755 190.53 211.77C191.556 208.762 193.003 206.198 194.871 204.079C196.762 201.96 198.995 200.342 201.57 199.226C204.168 198.109 207.028 197.551 210.149 197.551C213.294 197.551 216.154 198.109 218.729 199.226C221.326 200.342 223.559 201.96 225.428 204.079C227.319 206.198 228.777 208.762 229.803 211.77C230.851 214.755 231.375 218.15 231.375 221.955ZM221.019 224.313V221.887C221.019 219.243 220.779 216.919 220.301 214.914C219.822 212.909 219.116 211.223 218.182 209.855C217.247 208.488 216.108 207.463 214.764 206.779C213.419 206.073 211.881 205.72 210.149 205.72C208.418 205.72 206.88 206.073 205.535 206.779C204.214 207.463 203.086 208.488 202.151 209.855C201.24 211.223 200.545 212.909 200.066 214.914C199.588 216.919 199.349 219.243 199.349 221.887V224.313C199.349 226.934 199.588 229.258 200.066 231.286C200.545 233.291 201.251 234.989 202.186 236.379C203.12 237.746 204.259 238.783 205.604 239.489C206.948 240.196 208.486 240.549 210.218 240.549C211.95 240.549 213.488 240.196 214.832 239.489C216.176 238.783 217.304 237.746 218.216 236.379C219.127 234.989 219.822 233.291 220.301 231.286C220.779 229.258 221.019 226.934 221.019 224.313ZM238.758 198.234H257.317C261.123 198.234 264.393 198.804 267.127 199.943C269.884 201.083 272.003 202.769 273.484 205.002C274.965 207.235 275.706 209.981 275.706 213.239C275.706 215.905 275.25 218.195 274.339 220.109C273.45 222.001 272.186 223.584 270.545 224.86C268.927 226.114 267.024 227.116 264.837 227.868L261.59 229.577H245.457L245.389 221.579H257.386C259.186 221.579 260.678 221.26 261.863 220.622C263.048 219.984 263.937 219.095 264.529 217.956C265.145 216.817 265.452 215.495 265.452 213.991C265.452 212.396 265.156 211.018 264.563 209.855C263.971 208.693 263.071 207.805 261.863 207.189C260.656 206.574 259.14 206.267 257.317 206.267H249.012V248H238.758V198.234ZM266.58 248L255.232 225.817L266.067 225.749L277.552 247.521V248H266.58ZM316.995 240.002V248H290.506V240.002H316.995ZM293.855 198.234V248H283.602V198.234H293.855ZM313.543 218.503V226.296H290.506V218.503H313.543ZM316.961 198.234V206.267H290.506V198.234H316.961Z" fill="#222831"/>
</g>
<defs>
<filter id="filter0_dd_29_28" x="127.5" y="0" width="164" height="152" filterUnits="userSpaceOnUse" color-interpolation-filters="sRGB">
<feFlood flood-opacity="0" result="BackgroundImageFix"/>
<feColorMatrix in="SourceAlpha" type="matrix" values="0 0 0 0 0 0 0 0 0 0 0 0 0 0 0 0 0 0 127 0" result="hardAlpha"/>
<feOffset dy="4"/>
<feGaussianBlur stdDeviation="2"/>
<feColorMatrix type="matrix" values="0 0 0 0 0 0 0 0 0 0 0 0 0 0 0 0 0 0 0.3 0"/>
<feBlend mode="normal" in2="BackgroundImageFix" result="effect1_dropShadow_29_28"/>
<feColorMatrix in="SourceAlpha" type="matrix" values="0 0 0 0 0 0 0 0 0 0 0 0 0 0 0 0 0 0 127 0" result="hardAlpha"/>
<feMorphology radius="6" operator="dilate" in="SourceAlpha" result="effect2_dropShadow_29_28"/>
<feOffset dy="8"/>
<feGaussianBlur stdDeviation="6"/>
<feColorMatrix type="matrix" values="0 0 0 0 0 0 0 0 0 0 0 0 0 0 0 0 0 0 0.15 0"/>
<feBlend mode="normal" in2="effect1_dropShadow_29_28" result="effect2_dropShadow_29_28"/>
<feBlend mode="normal" in="SourceGraphic" in2="effect2_dropShadow_29_28" result="shape"/>
</filter>
<filter id="filter1_dd_29_28" x="-4" y="116" width="427" height="175" filterUnits="userSpaceOnUse" color-interpolation-filters="sRGB">
<feFlood flood-opacity="0" result="BackgroundImageFix"/>
<feColorMatrix in="SourceAlpha" type="matrix" values="0 0 0 0 0 0 0 0 0 0 0 0 0 0 0 0 0 0 127 0" result="hardAlpha"/>
<feOffset dy="4"/>
<feGaussianBlur stdDeviation="2"/>
<feColorMatrix type="matrix" values="0 0 0 0 0 0 0 0 0 0 0 0 0 0 0 0 0 0 0.3 0"/>
<feBlend mode="normal" in2="BackgroundImageFix" result="effect1_dropShadow_29_28"/>
<feColorMatrix in="SourceAlpha" type="matrix" values="0 0 0 0 0 0 0 0 0 0 0 0 0 0 0 0 0 0 127 0" result="hardAlpha"/>
<feMorphology radius="6" operator="dilate" in="SourceAlpha" result="effect2_dropShadow_29_28"/>
<feOffset dy="8"/>
<feGaussianBlur stdDeviation="6"/>
<feColorMatrix type="matrix" values="0 0 0 0 0 0 0 0 0 0 0 0 0 0 0 0 0 0 0.15 0"/>
<feBlend mode="normal" in2="effect1_dropShadow_29_28" result="effect2_dropShadow_29_28"/>
<feBlend mode="normal" in="SourceGraphic" in2="effect2_dropShadow_29_28" result="shape"/>
</filter>
</defs>
</svg>
